<?xml version="1.0" encoding="utf-8"?>
<!-- Generator: Adobe Illustrator 25.3.0, SVG Export Plug-In . SVG Version: 6.00 Build 0)  -->
<svg version="1.1" xmlns="http://www.w3.org/2000/svg" xmlns:xlink="http://www.w3.org/1999/xlink" x="0px" y="0px"
	 viewBox="0 0 81.27 29.97" style="enable-background:new 0 0 81.27 29.97;" xml:space="preserve">
<style type="text/css">
	.st0{fill-rule:evenodd;clip-rule:evenodd;fill:#007CFF;}
	.st1{fill:#00D4EA;}
	.st2{fill:#FFFFFF;}
</style>
<g id="레이어_4">
	<g id="레이어_2">
		<g>
			<path class="st0" d="M21.6,24.62V13.25h-9.79l0.69,4.3h4.06v4.16c-0.95,0.51-1.86,0.75-3.15,0.75c-4.03,0-6.06-3.09-6.06-7.48
				c0-4.37,1.96-7.35,5.99-7.35c2.41,0,4.47,0.88,6.23,2l0.78-5.04c-1.86-1.05-4.27-1.73-7.15-1.73C5.99,2.85,1.55,7.75,1.55,15
				c0,7.21,4.1,12.09,11.51,12.09C16.28,27.09,19.16,26.21,21.6,24.62z"/>
			<g>
				<g>
					<path class="st1" d="M54.18,18.51c2.7-1.77,6.36-4.08,6.36-8.47c0-4.82-4.08-7.01-7.88-7.01c-5.66,0-7.94,4.5-8.26,5.2
						l4.37,2.04c0.27-0.49,1.49-2.43,3.52-2.43c1.31,0,2.59,1.08,2.59,2.75c0,1.35-1.52,2.37-3.41,3.66c-3,2.04-6.73,4.59-6.73,9.82
						c0,0.69,0.08,1.45,0.24,2.39h15.57v-4.68l-9.61,0C50.94,20.75,52.42,19.66,54.18,18.51z"/>
				</g>
			</g>
			<path class="st2" d="M65.69,14.84c-1.24,0-2.24-1.01-2.24-2.24c0-1.24,1.01-2.24,2.24-2.24c1.24,0,2.24,1.01,2.24,2.24
				C67.93,13.83,66.93,14.84,65.69,14.84z"/>
			<path class="st1" d="M73.73,10.15c-0.3-0.1-0.83-0.24-1.37-0.24c-1.49,0-2.69,1.21-2.69,2.69c0,1.01,0.54,1.88,1.38,2.35
				c0.37,0.21,1.32,0.5,1.59,0.64c1.13,0.61,1.9,1.8,1.9,3.17c0,1.99-1.61,3.6-3.6,3.6c-1.88,0-3.43-1.45-3.58-3.29l-4.82,1.05
				c0.79,3.98,4.29,6.98,8.5,6.98c4.79,0,8.67-3.88,8.67-8.67C79.71,14.57,77.2,11.28,73.73,10.15z M72.36,14.39
				c-0.99,0-1.79-0.8-1.79-1.79c0-0.99,0.8-1.79,1.79-1.79c0.99,0,1.79,0.8,1.79,1.79C74.16,13.59,73.35,14.39,72.36,14.39z"/>
			<g>
				<path class="st1" d="M64.05,3.35L63.1,14.17h4.85l0.62-6.15h5.57c3.29,0,4.49-2.67,4.49-4.67H64.05z"/>
			</g>
			<path class="st0" d="M29.39,14.97c0-4.52,1.96-7.35,5.99-7.35c2.41,0,4.47,0.88,6.23,2l0.78-5.04c-1.86-1.05-4.27-1.73-7.15-1.73
				C28.03,2.85,23.6,7.75,23.6,15"/>
			<path class="st0" d="M29.39,15c0,4.37,1.96,7.35,5.99,7.35c2.41,0,4.47-0.88,6.23-2l0.78,5.04c-1.86,1.05-4.27,1.73-7.15,1.73
				c-7.21,0-11.65-4.9-11.65-12.15"/>
			<rect x="25.88" y="14.46" class="st0" width="3.51" height="0.95"/>
		</g>
	</g>
</g>
<g id="레이어_3">
</g>
</svg>
